<?xml version="1.0" encoding="UTF-8" standalone="no"?>
<!-- Created with Inkscape (http://www.inkscape.org/) -->

<svg
   width="56.618443mm"
   height="50.432358mm"
   viewBox="0 0 56.618443 50.432358"
   version="1.1"
   id="svg1"
   xml:space="preserve"
   xmlns:inkscape="http://www.inkscape.org/namespaces/inkscape"
   xmlns:sodipodi="http://sodipodi.sourceforge.net/DTD/sodipodi-0.dtd"
   xmlns="http://www.w3.org/2000/svg"
   xmlns:svg="http://www.w3.org/2000/svg"><sodipodi:namedview
     id="namedview1"
     pagecolor="#ffffff"
     bordercolor="#000000"
     borderopacity="0.25"
     inkscape:showpageshadow="2"
     inkscape:pageopacity="0.0"
     inkscape:pagecheckerboard="0"
     inkscape:deskcolor="#d1d1d1"
     inkscape:document-units="mm"><inkscape:page
       x="0"
       y="0"
       width="56.618443"
       height="50.432358"
       id="page2"
       margin="0"
       bleed="0" /></sodipodi:namedview><defs
     id="defs1" /><g
     inkscape:label="Layer 1"
     inkscape:groupmode="layer"
     id="layer1"
     transform="translate(-266.51154,-124.348)"><path
       style="fill:#ffffff;fill-opacity:1"
       d="m 273.71904,174.61538 c -0.61747,-0.24915 -0.31502,-1.01174 0.93559,-2.35897 1.69177,-1.82246 4.16195,-3.78376 5.60921,-4.45364 1.17361,-0.54323 1.5454,-0.55412 21.49826,-0.62972 14.12499,-0.0535 20.46589,0.01 20.83594,0.20775 0.48906,0.26173 0.53193,0.54977 0.53193,3.57335 0,2.98063 -0.0479,3.31433 -0.51177,3.56257 -0.52049,0.27855 -48.21485,0.37479 -48.89916,0.0987 z m -5.75658,-3.09781 c -1.60942,-2.45629 -1.94266,-7.23712 -0.6829,-9.79709 0.35082,-0.71289 1.0056,-1.71606 1.45507,-2.22926 0.86094,-0.98301 5.09955,-4.42166 11.10964,-9.01289 1.97901,-1.51181 3.59407,-2.82149 3.58902,-2.91042 -0.005,-0.0889 -2.76094,-2.3048 -6.12419,-4.92418 -7.81022,-6.08278 -9.23378,-7.43882 -9.99921,-9.525 -0.84331,-2.29841 -0.69432,-5.02741 0.38988,-7.14144 0.43656,-0.85123 0.91281,-1.58408 1.05833,-1.62856 0.14552,-0.0445 2.88396,1.9512 6.08542,4.43483 3.20146,2.48362 8.61654,6.67772 12.03352,9.32022 7.47677,5.7821 8.07266,6.35773 8.48392,8.19547 0.57431,2.56625 -0.39595,4.37684 -3.694,6.89333 -4.9542,3.78018 -15.21705,11.85205 -16.55886,13.02377 -0.87312,0.76244 -2.65205,2.40825 -3.95316,3.65734 -1.30111,1.2491 -2.45922,2.27109 -2.57359,2.27109 -0.11436,0 -0.39286,-0.28225 -0.61889,-0.62721 z m 35.22304,-9.42693 c -1.08152,-0.33679 -1.97376,-1.26119 -2.27945,-2.36163 -0.36206,-1.30334 -0.34163,-14.0357 0.0249,-15.49115 0.64097,-2.54553 2.09124,-2.8955 11.3413,-2.73686 6.75357,0.11583 7.27916,0.21849 8.32043,1.62516 0.53226,0.71905 0.55296,1.04678 0.55296,8.75734 0,8.64787 -0.0407,8.92847 -1.43284,9.87463 -0.60779,0.41309 -1.52232,0.47061 -8.22445,0.51731 -4.14735,0.0289 -7.88361,-0.0543 -8.30281,-0.1848 z"
       id="path1"
       inkscape:export-filename="tai-black.svg"
       inkscape:export-xdpi="96"
       inkscape:export-ydpi="96" /></g></svg>
